<svg xmlns="http://www.w3.org/2000/svg" viewBox="0 0 487.51 580.45"><defs><style>.cls-1{fill:#fff;}</style></defs><g id="Layer_2" data-name="Layer 2"><g id="Layer_1-2" data-name="Layer 1"><path class="cls-1" d="M395.8.05c-8.09.77-12.71,9.89-41.13,70-17.7,37.45-22.47,47.79-34.46,60-16.29,16.62-31.3,21.82-44.47,28.9-23,12.35-52.64,37-78.23,91.68a11.39,11.39,0,0,1-5.8,5.62A392,392,0,0,0,83.47,325.93c-8.46,7.66-1.8,21.63,9.48,19.89q78-12,78.3-10.06.31,1.77-63.11,15a11.57,11.57,0,0,0-4.51,2c-41,30.24-50.65,43.28-48,48.52,3,5.89,20.81.63,23.35,6.67,4.26,10.15-41.36,36.11-37.8,43.35,2.43,4.94,25.24-3.85,27.79,1.12,4.14,8-52.12,38.24-46.69,55.58,3.1,9.88,23.69,7.11,26.68,16.67,5.31,16.95-51.1,41.89-48.91,51.14C3.78,591.56,177.4,565.67,436.15,518a11.51,11.51,0,0,0,9.13-13.93c-12.11-52.17-19.68-93.12-13.91-95,4.34-1.4,12.9,20.46,18.89,18.9,13.22-3.43-7.79-114.75,1.12-116.72l.22,0c6.4-.13,11.3-5.85,11.4-12.25l.6-36.64c-.48-36.59,5.46-64.45,11.12-83.37,7.6-25.41,17.78-45,10-66.7a53.41,53.41,0,0,0-11.55-18.51,11.46,11.46,0,0,0-17.88,1.65h0c-6.41,9.74-21.57,4.85-21.08-6.8q.74-18,1.49-35.9a11.28,11.28,0,0,0-1-5.15C415.74,5.2,403.08-.64,395.8.05Z"/></g></g></svg>